<svg width="1123" height="647" viewBox="0 0 1123 647" fill="none" xmlns="http://www.w3.org/2000/svg">
<path d="M1070 53.5C1070 49.3579 1073.36 46 1077.5 46H1103C1105.21 46 1107 47.7909 1107 50V57.5C1107 61.6421 1103.64 65 1099.5 65H1075C1072.24 65 1070 62.7614 1070 60V53.5Z" fill="#53A2FF"/>
<path d="M975 7.2C975 3.22355 978.224 0 982.2 0H1003C1005.21 0 1007 1.79086 1007 4V4.5C1007 8.64214 1003.64 12 999.5 12H979.8C977.149 12 975 9.85097 975 7.2V7.2Z" fill="#53A2FF"/>
<path d="M1042 65.5C1042 55.835 1049.84 48 1059.5 48H1073C1080.73 48 1087 54.268 1087 62V71C1087 76.5228 1082.52 81 1077 81H1048C1044.69 81 1042 78.3137 1042 75V65.5Z" fill="#FFE353"/>
<rect x="450" y="148" width="67" height="40" rx="20" fill="#FFE353"/>
<path d="M0 97H219.537C324.174 97 409 181.826 409 286.463V286.463C409 340.884 364.884 385 310.463 385H0V97Z" fill="#FFD500"/>
<rect x="423" y="162" width="34" height="17" rx="8.5" fill="#53A2FF"/>
<path d="M460 131C460 126.582 463.582 123 468 123H472C474.761 123 477 125.239 477 128V132C477 136.418 473.418 140 469 140H468C463.582 140 460 136.418 460 132V131Z" fill="#53A2FF"/>
<path d="M386 148C386 143.582 389.582 140 394 140H404C406.761 140 409 142.239 409 145V149C409 153.418 405.418 157 401 157H394C389.582 157 386 153.418 386 149V148Z" fill="#53A2FF"/>
<rect x="484" y="135" width="34" height="17" rx="8.5" fill="#53A2FF"/>
<path d="M0 174H487.5C618.115 174 724 279.885 724 410.5V524C724 591.931 668.931 647 601 647H0V174Z" fill="#FFE353"/>
<path d="M707 527C707 523.134 710.134 520 714 520H734C738.418 520 742 523.582 742 528V539C742 545.628 736.627 551 730 551H707V527Z" fill="#FFE353"/>
<path d="M460 274.5C460 132.839 574.839 18 716.5 18H1002C1044.53 18 1079 52.4741 1079 95V418C1079 480.408 1028.41 531 966 531H500C477.909 531 460 513.091 460 491V274.5Z" fill="#53A2FF"/>
<path d="M310 210.5C310 206.358 313.358 203 317.5 203H325C328.314 203 331 205.686 331 209V212C331 216.418 327.418 220 323 220H318.5C313.806 220 310 216.194 310 211.5V210.5Z" fill="#53A2FF"/>
<path d="M364 195C364 190.582 367.582 187 372 187H390C393.866 187 397 190.134 397 194V195C397 199.418 393.418 203 389 203H370C366.686 203 364 200.314 364 197V195Z" fill="#53A2FF"/>
<path d="M399 144.08C399 141.827 400.827 140 403.08 140H414.5C419.194 140 423 143.806 423 148.5V148.5C423 153.194 419.194 157 414.5 157H402.032C400.357 157 399 155.643 399 153.968V144.08Z" fill="#FFE353"/>
<rect x="483" y="102" width="34" height="17" rx="8.5" fill="#FFE353"/>
<rect x="430" y="119" width="20" height="14" rx="7" fill="#FFE353"/>
<path d="M656 527C656 524.239 658.239 522 661 522H670C673.314 522 676 524.686 676 528V531C676 533.762 673.761 536 671 536H663C659.134 536 656 532.866 656 529V527Z" fill="#FFE353"/>
<path d="M707 504C707 500.134 710.134 497 714 497H725C727.761 497 730 499.239 730 502V507C730 510.314 727.314 513 724 513H713C709.686 513 707 510.314 707 507V504Z" fill="#FFE353"/>
<path d="M778 556.5C778 552.358 781.358 549 785.5 549H810C812.209 549 814 550.791 814 553V556.5C814 560.642 810.642 564 806.5 564H783C780.239 564 778 561.762 778 559V556.5Z" fill="#FFE353"/>
<path d="M758 546.5C758 542.358 761.358 539 765.5 539H798C800.209 539 802 540.791 802 543V546.5C802 550.642 798.642 554 794.5 554H763C760.239 554 758 551.762 758 549V546.5Z" fill="#53A2FF"/>
<path d="M1079 162.5C1079 158.358 1082.36 155 1086.5 155H1119C1121.21 155 1123 156.791 1123 159V162.5C1123 166.642 1119.64 170 1115.5 170H1084C1081.24 170 1079 167.761 1079 165V162.5Z" fill="#53A2FF"/>
<path d="M845 529C845 525.134 848.134 522 852 522H867C869.761 522 872 524.239 872 527V530C872 533.314 869.314 536 866 536H851C847.686 536 845 533.314 845 530V529Z" fill="#FFE353"/>
<path d="M1087 102C1087 98.134 1090.13 95 1094 95H1109C1111.76 95 1114 97.2386 1114 100V103C1114 106.314 1111.31 109 1108 109H1093C1089.69 109 1087 106.314 1087 103V102Z" fill="#FFE353"/>
<path d="M558 399C558 395.134 561.134 392 565 392H590C592.761 392 595 394.239 595 397V405C595 408.314 592.314 411 589 411H564C560.686 411 558 408.314 558 405V399Z" fill="#FFE353"/>
<path d="M510 448.5C510 438.835 517.835 431 527.5 431H550C552.761 431 555 433.239 555 436V450C555 457.732 548.732 464 541 464H516C512.686 464 510 461.314 510 458V448.5Z" fill="#FFE353"/>
<path d="M1056 153C1056 146.373 1061.37 141 1068 141H1093C1095.76 141 1098 143.239 1098 146V158C1098 164.627 1092.63 170 1086 170H1062C1058.69 170 1056 167.314 1056 164V153Z" fill="#FFE353"/>
<path d="M952 23C952 16.3726 957.373 11 964 11H989C991.761 11 994 13.2386 994 16V28C994 34.6274 988.627 40 982 40H958C954.686 40 952 37.3137 952 34V23Z" fill="#FFE353"/>
<path d="M1003 13.3333C1003 8.17868 1007.18 4 1012.33 4H1029.88C1032.16 4 1034 5.84353 1034 8.11765V8.11765C1034 13.5755 1029.58 18 1024.12 18H1007.67C1005.09 18 1003 15.9107 1003 13.3333V13.3333Z" fill="#FFE353"/>
<path d="M460 528C460 524.134 463.134 521 467 521H491C493.761 521 496 523.239 496 526V542C496 545.314 493.314 548 490 548H466C462.686 548 460 545.314 460 542V528Z" fill="#FFE353"/>
<path d="M587 444C587 440.134 590.134 437 594 437H609C611.761 437 614 439.239 614 442V445C614 448.314 611.314 451 608 451H593C589.686 451 587 448.314 587 445V444Z" fill="#FFE353"/>
<path d="M705 553C705 549.134 708.134 546 712 546H727C729.761 546 732 548.239 732 551V554C732 557.314 729.314 560 726 560H711C707.686 560 705 557.314 705 554V553Z" fill="#53A2FF"/>
<path d="M609 280C609 246.863 635.863 220 669 220H910C928.225 220 943 234.775 943 253V315C943 348.137 916.137 375 883 375H648C626.461 375 609 357.539 609 336V280Z" fill="#FFE353" class='projectTxtContainer'/>
</svg>
