<svg width="1800" height="819" viewBox="0 0 1800 819" fill="none" xmlns="http://www.w3.org/2000/svg">
<path d="M409 71H1736V110C1736 137.062 1714.06 159 1687 159H453C428.699 159 409 139.301 409 115V71Z" fill="#FFE353"/>
<path d="M715 74H742V181.774C742 189.631 735.631 196 727.774 196V196C720.719 196 715 190.281 715 183.226V74Z" fill="#FFE353"/>
<path d="M715 74H742V181.774C742 189.631 735.631 196 727.774 196V196C720.719 196 715 190.281 715 183.226V74Z" fill="#FFE353"/>
<path d="M1541 87H1567V181.455C1567 190.592 1559.59 198 1550.45 198V198C1545.23 198 1541 193.767 1541 188.545V87Z" fill="#53A2FF"/>
<path d="M814 121H858V323C858 334.598 848.598 344 837 344H834C822.954 344 814 335.046 814 324V121Z" fill="#53A2FF"/>
<path d="M1179 135H1206V345.774C1206 353.631 1199.63 360 1191.77 360V360C1184.72 360 1179 354.281 1179 347.226V135Z" fill="#FFE353"/>
<path d="M1488 148H1515V394.774C1515 402.631 1508.63 409 1500.77 409V409C1493.72 409 1488 403.281 1488 396.226V148Z" fill="#FFE353"/>
<path d="M733 121H760V331.774C760 339.631 753.631 346 745.774 346V346C738.719 346 733 340.281 733 333.226V121Z" fill="#FFE353"/>
<path d="M1135 109H1179V204C1179 215.598 1169.6 225 1158 225H1155C1143.95 225 1135 216.046 1135 205V109Z" fill="#53A2FF"/>
<path d="M555 135H620V777.636C620 800.481 601.481 819 578.636 819V819C565.582 819 555 808.418 555 795.364V135Z" fill="#53A2FF"/>
<path d="M1511 109H1537V439.455C1537 448.592 1529.59 456 1520.45 456V456C1515.23 456 1511 451.767 1511 446.545V109Z" fill="#53A2FF"/>
<path d="M0 0H1800V86C1800 113.062 1778.06 135 1751 135H0V0Z" fill="#53A2FF"/>
<path d="M0 148H370C451.738 148 518 81.7381 518 0V0H0V148Z" fill="#FFE353"/>
</svg>
