<svg width="254" height="882" viewBox="0 0 254 882" fill="none" xmlns="http://www.w3.org/2000/svg">
<g id="sideBlob">
<path id="Rectangle 117" d="M65 473V616C65 651.899 35.8985 681 0 681V681L0 473H65Z" fill="#FFE353"/>
<path id="Rectangle 123" d="M30 455H121V541C121 568.062 99.0619 590 72 590H30V455Z" fill="#53A2FF"/>
<path id="Rectangle 122" d="M0 807H2.07317C3.68961 807 5 808.31 5 809.927V814C5 816.761 2.76142 819 0 819V819V807Z" fill="#53A2FF"/>
<path id="Rectangle 124" d="M142 0H254V233C254 260.062 232.062 282 205 282H142V0Z" fill="#53A2FF"/>
<path id="Rectangle 125" d="M0 590H45V680C45 704.853 24.8528 725 0 725V725V590Z" fill="#53A2FF"/>
<path id="Rectangle 114" d="M172 0L172 364C172 458.993 94.993 536 0 536V536L0 0L172 0Z" fill="#FFE353"/>
<path id="Rectangle 121" d="M84 473V538C84 584.392 46.3919 622 0 622V622L0 473H84Z" fill="#FFE353"/>
<path id="Rectangle 115" d="M0 726C0 722.686 2.68629 720 6 720H12C16.4183 720 20 723.582 20 728V762C20 769.18 14.1797 775 7 775H0V726Z" fill="#FFE353"/>
<path id="Rectangle 116" d="M0 843C0 841.343 1.34315 840 3 840V840C5.20914 840 7 841.791 7 844V875C7 878.866 3.86599 882 0 882V882V843Z" fill="#FFE353"/>
</g>
</svg>
